<?xml version="1.0" encoding="utf-8"?>
<!-- Generator: Adobe Illustrator 21.0.0, SVG Export Plug-In . SVG Version: 6.00 Build 0)  -->
<svg version="1.1" id="Layer_1" xmlns="http://www.w3.org/2000/svg" xmlns:xlink="http://www.w3.org/1999/xlink" x="0px" y="0px"
	 viewBox="0 0 15 15" style="enable-background:new 0 0 15 15;" xml:space="preserve">
<g id="Layer_2">
	<path style="fill:#1AB900;" d="M7.5,14.8c-1.5-3.7-5.9-3.6-6-8.6c-0.1-3.3,2.7-6,6-6s6,2.7,6,6C13.4,11.2,9,11.1,7.5,14.8"/>
</g>
<path style="fill:#FFFFFF;" d="M10.6,5.9L6.2,3.3C6,3.2,5.7,3.3,5.6,3.5c0,0.1-0.1,0.1-0.1,0.2v5.1C5.5,9,5.7,9.2,6,9.2
	c0.1,0,0.2,0,0.2-0.1l4.4-2.5c0.2-0.1,0.3-0.4,0.2-0.6C10.7,5.9,10.6,5.9,10.6,5.9z"/>
</svg>
